<?xml version="1.0" encoding="UTF-8" standalone="no"?>
<svg
   xmlns:dc="http://purl.org/dc/elements/1.1/"
   xmlns:cc="http://creativecommons.org/ns#"
   xmlns:rdf="http://www.w3.org/1999/02/22-rdf-syntax-ns#"
   xmlns:svg="http://www.w3.org/2000/svg"
   xmlns="http://www.w3.org/2000/svg"
   xmlns:sodipodi="http://sodipodi.sourceforge.net/DTD/sodipodi-0.dtd"
   xmlns:inkscape="http://www.inkscape.org/namespaces/inkscape"
   version="1.0"
   width="1280.000000pt"
   height="1280.000000pt"
   viewBox="0 0 1280.000000 1280.000000"
   preserveAspectRatio="xMidYMid meet"
   id="svg8"
   sodipodi:docname="bishop.svg"
   inkscape:version="1.0.2-2 (e86c870879, 2021-01-15)">
  <defs
     id="defs12" />
  <sodipodi:namedview
     pagecolor="#ffffff"
     bordercolor="#666666"
     borderopacity="1"
     objecttolerance="10"
     gridtolerance="10"
     guidetolerance="10"
     inkscape:pageopacity="0"
     inkscape:pageshadow="2"
     inkscape:window-width="1708"
     inkscape:window-height="931"
     id="namedview10"
     showgrid="false"
     inkscape:zoom="0.2578125"
     inkscape:cx="494.47927"
     inkscape:cy="902.32863"
     inkscape:window-x="-9"
     inkscape:window-y="-9"
     inkscape:window-maximized="1"
     inkscape:current-layer="svg8"
     inkscape:document-rotation="0" />
  <metadata
     id="metadata2">
Created by potrace 1.15, written by Peter Selinger 2001-2017
<rdf:RDF>
  <cc:Work
     rdf:about="">
    <dc:format>image/svg+xml</dc:format>
    <dc:type
       rdf:resource="http://purl.org/dc/dcmitype/StillImage" />
  </cc:Work>
</rdf:RDF>
</metadata>
  <g
     transform="matrix(0.22606465,0,0,-0.13261677,-805.67803,1439.8887)"
     fill="#000000"
     stroke="none"
     id="g6">
    <path
       d="m 6288,10771 c -136,-44 -214,-132 -233,-264 -12,-76 9,-127 81,-209 35,-39 64,-79 64,-88 0,-30 -66,-195 -121,-301 -69,-135 -182,-303 -335,-499 -240,-309 -367,-519 -410,-680 -24,-90 -24,-247 0,-320 53,-155 139,-303 314,-538 116,-155 120,-182 31,-211 -79,-25 -108,-102 -55,-147 14,-13 44,-28 65,-34 52,-14 71,-39 78,-101 8,-82 -4,-102 -79,-129 -35,-13 -88,-36 -119,-51 -62,-31 -67,-39 -94,-157 -20,-85 -44,-119 -89,-128 -104,-19 -158,-121 -104,-196 26,-38 85,-64 162,-73 71,-9 91,-27 100,-89 11,-69 60,-120 163,-167 47,-22 89,-49 98,-63 46,-69 43,-692 -5,-1286 -37,-452 -141,-837 -326,-1210 -93,-187 -175,-315 -296,-460 -94,-114 -118,-153 -118,-193 0,-36 -25,-95 -53,-125 -12,-13 -44,-35 -72,-49 -78,-40 -133,-81 -218,-162 -285,-272 -402,-628 -270,-824 26,-39 31,-52 21,-58 -56,-31 -118,-82 -143,-118 -24,-34 -30,-54 -33,-111 -5,-89 9,-129 64,-180 152,-140 594,-236 1349,-292 228,-17 1173,-17 1395,0 733,56 1139,140 1326,274 61,43 88,99 88,178 -1,100 -38,159 -144,226 -25,15 -47,29 -49,31 -3,2 5,13 17,26 34,36 64,116 70,183 11,137 -42,299 -148,458 -109,162 -231,274 -424,388 -54,32 -83,76 -91,138 -9,67 -25,95 -121,210 -227,272 -389,595 -504,1003 -85,300 -110,483 -141,1062 -19,356 -21,439 -12,631 7,147 15,231 24,250 10,21 36,40 95,69 134,66 156,90 178,197 9,41 29,54 90,62 114,13 186,64 186,131 0,74 -35,117 -112,135 -62,15 -81,44 -105,155 -21,100 -41,120 -160,165 -117,44 -126,54 -126,129 0,77 19,107 78,122 48,12 95,56 95,89 0,30 -46,76 -95,94 -82,32 -75,58 59,235 138,182 224,328 284,481 23,57 26,80 26,185 0,110 -3,128 -33,215 -57,167 -137,297 -371,600 -251,325 -383,544 -456,756 l -28,82 58,63 c 79,85 100,134 93,215 -14,143 -101,240 -252,280 -68,18 -139,17 -207,-5 z"
       id="path4" />
  </g>
</svg>
